<?xml version="1.0" encoding="UTF-8" standalone="no"?>
<!DOCTYPE svg PUBLIC "-//W3C//DTD SVG 1.1//EN" "http://www.w3.org/Graphics/SVG/1.1/DTD/svg11.dtd">
<!-- Created with Vectornator (http://vectornator.io/) -->
<svg height="100%" stroke-miterlimit="10" style="fill-rule:nonzero;clip-rule:evenodd;stroke-linecap:round;stroke-linejoin:round;" version="1.1" viewBox="0 0 1024 1024" width="100%" xml:space="preserve" xmlns="http://www.w3.org/2000/svg" xmlns:vectornator="http://vectornator.io" xmlns:xlink="http://www.w3.org/1999/xlink">
<defs/>
<g id="Ebene-1" vectornator:layerName="Ebene 1">
<path d="M600 60L960 420L510 870L150 510L600 60Z" fill="#ffffff" fill-rule="nonzero" opacity="1" stroke="none"/>
<path d="M600 60L960 420L960 60L600 60Z" fill="#e384ff" fill-rule="nonzero" opacity="1" stroke="none"/>
<path d="M150 510L510 870L330 870L150 690L150 510Z" fill="#191825" fill-rule="nonzero" opacity="1" stroke="none"/>
<path d="M150 690L330 870L60 960L150 690Z" fill="#faffa3" fill-rule="nonzero" opacity="1" stroke="none"/>
<path d="M150 510L60 420L240 240L420 240L150 510Z" fill="#865dff" fill-rule="nonzero" opacity="1" stroke="none"/>
<path d="M510 870L600 960L780 780L780 600L510 870Z" fill="#865dff" fill-rule="nonzero" opacity="1" stroke="none"/>
<path d="M510 420C510 370.294 550.294 330 600 330C649.706 330 690 370.294 690 420C690 469.706 649.706 510 600 510C550.294 510 510 469.706 510 420Z" fill="#c1b5c4" fill-rule="nonzero" opacity="1" stroke="#000000" stroke-linecap="butt" stroke-linejoin="round" stroke-width="11.835"/>
<path d="M60 960L150 690L150 510L60 420L240 240L420 240L600 60L960 60L960 420L780 600L780 780L600 960L510 870L330 870L60 960Z" fill="none" opacity="1" stroke="#000000" stroke-linecap="butt" stroke-linejoin="round" stroke-width="11.835"/>
<path d="M420 240L150 510L510 870L780 600" fill="none" opacity="1" stroke="#000000" stroke-linecap="butt" stroke-linejoin="round" stroke-width="11.835"/>
</g>
</svg>
